<svg width="24" height="24" viewBox="0 0 24 24" fill="none" xmlns="http://www.w3.org/2000/svg">
<path d="M21 6.5C21 8.433 19.433 10 17.5 10C15.567 10 14 8.433 14 6.5C14 4.567 15.567 3 17.5 3C19.433 3 21 4.567 21 6.5Z" fill="#6210CC"/>
<path d="M13.1689 3.99999L3.5 3.99999L3.5 18C3.5 19.6568 4.84315 21 6.5 21H17.5C19.1569 21 20.5 19.6568 20.5 18V10.5004C19.6643 11.1281 18.6256 11.5 17.5 11.5C14.7386 11.5 12.5 9.26142 12.5 6.5C12.5 5.58928 12.7435 4.73543 13.1689 3.99999Z" fill="#6210CC"/>
</svg>
